HIERARCHY
ROOT SpineBase
{
  OFFSET 0.000000 0.000000 0.000000
  CHANNELS 6 Xposition Yposition Zposition Zrotation Xrotation Yrotation
  JOINT SpineMid
  {
    OFFSET -0.000000 23.553902 0.000000
    CHANNELS 3 Zrotation Xrotation Yrotation
    JOINT SpineShoulder
    {
      OFFSET -0.209399 17.685876 -0.849186
      CHANNELS 3 Zrotation Xrotation Yrotation
      JOINT Neck
      {
        OFFSET -0.097487 5.915427 -0.609751
        CHANNELS 3 Zrotation Xrotation Yrotation
        JOINT Head
        {
          OFFSET -7.386373 5.508307 -2.232311
          CHANNELS 3 Zrotation Xrotation Yrotation
          End Site
          {
            OFFSET 0 0 0
          }
        }
      }
      JOINT ShoulderLeft
      {
        OFFSET -13.107072 -7.878631 -2.281500
        CHANNELS 3 Zrotation Xrotation Yrotation
        JOINT ElbowLeft
        {
          OFFSET 4.422443 -19.308905 -3.189703
          CHANNELS 3 Zrotation Xrotation Yrotation
          JOINT WristLeft
          {
            OFFSET 15.448878 -1.696552 4.048994
            CHANNELS 3 Zrotation Xrotation Yrotation
            JOINT HandLeft
            {
              OFFSET 1.798266 -2.073987 -4.144818
              CHANNELS 3 Zrotation Xrotation Yrotation
              JOINT HandTipLeft
              {
                OFFSET -0.802725 -0.069802 -0.674968
                CHANNELS 3 Zrotation Xrotation Yrotation
                End Site
                {
                  OFFSET 0 0 0
                }
              }
              JOINT ThumbLeft
              {
                OFFSET -0.284632 2.961232 -1.571299
                CHANNELS 3 Zrotation Xrotation Yrotation
                End Site
                {
                  OFFSET 0 0 0
                }
              }
            }
          }
        }
      }
      JOINT ShoulderRight
      {
        OFFSET 3.551134 12.647409 1.288685
        CHANNELS 3 Zrotation Xrotation Yrotation
        JOINT ElbowRight
        {
          OFFSET -8.775812 15.779858 -17.204332
          CHANNELS 3 Zrotation Xrotation Yrotation
          JOINT WristRight
          {
            OFFSET 5.783626 -13.826608 0.676846
            CHANNELS 3 Zrotation Xrotation Yrotation
            JOINT HandRight
            {
              OFFSET 4.124532 -3.259038 3.266792
              CHANNELS 3 Zrotation Xrotation Yrotation
              JOINT HandTipRight
              {
                OFFSET 3.943664 -4.463093 -0.188918
                CHANNELS 3 Zrotation Xrotation Yrotation
                End Site
                {
                  OFFSET 0 0 0
                }
              }
              JOINT ThumbRight
              {
                OFFSET 0.047375 -1.813977 -1.401750
                CHANNELS 3 Zrotation Xrotation Yrotation
                End Site
                {
                  OFFSET 0 0 0
                }
              }
            }
          }
        }
      }
    }
  }
  JOINT HipLeft
  {
    OFFSET -4.482679 -1.203104 -4.773575
    CHANNELS 3 Zrotation Xrotation Yrotation
    JOINT KneeLeft
    {
      OFFSET -2.666939 -7.542727 1.207370
      CHANNELS 3 Zrotation Xrotation Yrotation
      JOINT AnkleLeft
      {
        OFFSET 4.499799 -24.788108 1.680041
        CHANNELS 3 Zrotation Xrotation Yrotation
        JOINT FootLeft
        {
          OFFSET 2.070595 -2.338063 -11.039184
          CHANNELS 3 Zrotation Xrotation Yrotation
          End Site
          {
            OFFSET 0 0 0
          }
        }
      }
    }
  }
  JOINT HipRight
  {
    OFFSET 4.124375 3.186791 -1.274028
    CHANNELS 3 Zrotation Xrotation Yrotation
    JOINT KneeRight
    {
      OFFSET -27.734009 -8.538216 -1.332645
      CHANNELS 3 Zrotation Xrotation Yrotation
      JOINT AnkleRight
      {
        OFFSET 12.848469 -25.981959 20.503441
        CHANNELS 3 Zrotation Xrotation Yrotation
        JOINT FootRight
        {
          OFFSET 9.789673 -2.391117 0.678679
          CHANNELS 3 Zrotation Xrotation Yrotation
          End Site
          {
            OFFSET 0 0 0
          }
        }
      }
    }
  }
}
MOTION
Frames: 10
Frame Time: 0.033333
35.056516 56.419047 352.714894 10.425972 -12.728290 -4.375786 -0.726897 0.893816 5.854272 -0.117941 0.544179 0.433890 -47.990718 23.892506 26.646606 0.000000 0.000000 0.000000 173.870996 41.324822 -146.940292 86.288961 -28.769576 152.751115 -160.650308 29.008928 132.249057 7.427398 -27.253876 -109.868028 0.000000 0.000000 0.000000 0.000000 0.000000 0.000000 25.434604 -39.760651 12.560735 -159.432912 -27.106366 -178.649320 -101.490620 67.926581 76.403534 162.999082 -35.743150 -161.578244 0.000000 0.000000 0.000000 0.000000 0.000000 0.000000 -23.528988 36.155109 1.129757 -0.183561 -27.205919 6.757557 19.538200 3.061372 -30.605858 0.000000 0.000000 0.000000 94.729459 11.450606 5.533400 -89.216225 40.736998 10.483627 -19.171606 -5.353100 22.221329 0.000000 0.000000 0.000000
38.251797 58.664094 354.645536 10.058963 -13.150642 5.624911 0.403294 1.191975 -4.260543 -0.391189 0.399293 0.474179 -48.927524 25.449428 31.731077 0.000000 0.000000 0.000000 171.269468 48.552600 -147.270702 80.676956 -31.235598 146.581469 -155.350065 24.446369 139.529445 -23.055635 -45.447188 -146.843138 0.000000 0.000000 0.000000 0.000000 0.000000 0.000000 27.968652 -40.663629 14.696818 -158.871189 -29.783741 168.207334 -87.469532 20.131128 71.867595 -154.286535 -54.300131 -152.687465 0.000000 0.000000 0.000000 0.000000 0.000000 0.000000 -20.266770 44.660046 -10.512223 5.088213 -31.486053 9.754564 23.876590 7.760728 -36.608754 0.000000 0.000000 0.000000 104.054937 3.969844 10.584438 -106.251458 51.022931 11.662640 -13.053365 -11.097147 30.862694 0.000000 0.000000 0.000000
40.891792 59.712877 354.770509 10.100213 -11.688510 -1.640600 -0.095834 1.868403 2.877438 -0.220902 0.184230 0.481831 -52.289269 24.721788 35.089279 0.000000 0.000000 0.000000 174.529751 51.234861 -152.345204 81.950990 -31.234672 148.305287 -151.010231 22.054570 141.883611 -61.872351 -37.311911 174.525229 0.000000 0.000000 0.000000 0.000000 0.000000 0.000000 39.046639 -46.844914 24.039004 -160.704826 -37.410278 162.296295 -86.558637 -21.589534 85.269519 -108.212472 -44.037688 -135.563146 0.000000 0.000000 0.000000 0.000000 0.000000 0.000000 -28.503225 36.247657 -0.606467 6.232325 -26.566542 9.207619 25.498808 10.333102 -35.512225 0.000000 0.000000 0.000000 108.523693 12.031698 10.820147 -119.796043 55.443881 15.691293 -4.379503 -14.098108 41.211305 0.000000 0.000000 0.000000
45.521057 57.349943 354.796697 10.786005 -12.897214 -3.386579 0.391470 2.102203 4.754165 -0.426785 0.445828 0.522012 -55.194059 25.114240 36.555454 0.000000 0.000000 0.000000 176.228441 34.386221 -148.736601 90.643485 -28.895957 161.751710 167.402561 22.779111 172.198027 -59.415247 -37.758917 -153.449992 0.000000 0.000000 0.000000 0.000000 0.000000 0.000000 41.660116 -42.083576 27.551944 -164.550471 -36.869041 166.747377 -89.794090 5.228885 76.621646 -166.213559 -37.272536 -144.591684 0.000000 0.000000 0.000000 0.000000 0.000000 0.000000 -38.209071 32.988305 4.318419 12.422473 -23.551258 10.472377 25.700226 6.199364 -40.601568 0.000000 0.000000 0.000000 108.563657 17.204915 13.251487 -124.994884 62.083730 16.319217 -3.966127 -16.033967 44.543417 0.000000 0.000000 0.000000
48.870474 59.298327 354.419494 11.387523 -10.863090 -9.541574 0.458262 1.932601 10.835609 -0.542599 0.948886 0.525373 -55.695425 24.603045 38.787657 0.000000 0.000000 0.000000 174.100105 39.446051 -147.993412 86.317516 -32.890882 160.080565 178.917403 34.536048 155.877061 -80.674978 -40.687097 -177.828990 0.000000 0.000000 0.000000 0.000000 0.000000 0.000000 49.558409 -44.952385 35.713505 -165.826100 -28.839656 146.111969 6.500673 -62.610585 177.877045 -49.490432 -39.546793 -103.546778 0.000000 0.000000 0.000000 0.000000 0.000000 0.000000 -41.311104 23.935208 8.683397 11.552061 -20.416966 9.047954 21.799360 0.781724 -30.681722 0.000000 0.000000 0.000000 102.588525 20.791592 10.839870 -117.207190 54.900642 12.751719 -4.896840 -13.933828 46.239316 0.000000 0.000000 0.000000
52.511962 58.742408 355.903001 11.441236 -11.394716 -21.253347 0.219584 1.891042 22.608481 -0.606865 1.299438 0.502298 -54.344146 25.169242 39.133729 0.000000 0.000000 0.000000 175.198176 34.966017 -147.693337 88.012315 -28.975660 162.480200 164.208295 41.368642 156.619265 -83.358874 -46.562206 -157.883439 0.000000 0.000000 0.000000 0.000000 0.000000 0.000000 57.172235 -43.429475 42.212706 -169.946927 -24.222899 145.084557 37.191772 4.613462 -94.106631 -0.066291 10.869301 -142.436892 0.000000 0.000000 0.000000 0.000000 0.000000 0.000000 -44.394590 14.559015 18.200379 6.974706 -18.544368 7.051067 22.332065 -5.467489 -23.970548 0.000000 0.000000 0.000000 107.321657 27.450944 0.999719 -126.896588 49.619735 16.748091 -9.402220 -15.539485 60.107669 0.000000 0.000000 0.000000
54.833632 61.953235 356.898202 9.896077 -9.006105 -31.051723 -0.002428 1.615310 32.069129 -0.552355 1.662196 0.409380 -58.664487 23.315760 42.231489 0.000000 0.000000 0.000000 -174.991351 45.014306 -165.739794 87.716642 -28.085484 163.011406 -151.837564 42.251431 114.164780 -40.972115 -51.112499 -152.768737 0.000000 0.000000 0.000000 0.000000 0.000000 0.000000 64.148951 -43.117555 48.313176 -172.140807 -26.783195 146.162613 32.558958 19.991057 -79.671923 22.769092 12.005840 -159.650395 0.000000 0.000000 0.000000 0.000000 0.000000 0.000000 -40.679827 6.063110 24.703179 3.979539 -17.107110 5.656360 19.381326 -11.224933 -12.320193 0.000000 0.000000 0.000000 107.840520 32.359858 -5.271952 -128.529352 43.312474 17.765976 -17.546587 -21.004192 55.382619 0.000000 0.000000 0.000000
58.089555 61.901807 357.705198 9.622920 -8.959143 -34.924949 -0.094103 0.805663 35.970041 -0.546984 1.799769 0.370995 -52.423384 24.584540 41.563721 0.000000 0.000000 0.000000 -163.807122 32.646528 176.846317 99.873192 -10.062001 172.601198 -157.611416 38.221329 119.491688 14.408422 -24.626977 -112.039277 0.000000 0.000000 0.000000 0.000000 0.000000 0.000000 58.210351 -41.965770 42.640370 -169.532243 -36.148089 145.413279 21.431011 1.289673 -44.185954 27.284942 22.513596 175.417918 0.000000 0.000000 0.000000 0.000000 0.000000 0.000000 -43.278538 2.133369 26.884650 7.027129 -17.257606 6.391362 17.971606 -15.215153 -7.315448 0.000000 0.000000 0.000000 105.867817 34.694115 -7.381622 -128.429364 41.455024 17.926110 -20.377013 -23.777947 53.785011 0.000000 0.000000 0.000000
60.987834 60.577408 358.122397 8.527324 -9.094281 -39.955229 0.443208 0.608000 40.896083 -0.348395 1.934744 0.335174 -45.688049 23.587306 32.745034 0.000000 0.000000 0.000000 -163.855882 23.169896 179.174477 102.698309 1.982474 174.857415 -159.766516 25.582839 122.230152 27.919026 3.947294 -97.184359 0.000000 0.000000 0.000000 0.000000 0.000000 0.000000 45.258486 -33.855762 32.446966 -167.836289 -38.893531 154.347365 -36.028101 4.202510 19.855804 101.543154 -20.228782 163.970662 0.000000 0.000000 0.000000 0.000000 0.000000 0.000000 -46.370132 -4.752236 29.253135 13.453566 -14.878651 8.032258 16.001847 -19.801443 -3.159306 0.000000 0.000000 0.000000 106.157150 39.409102 -9.011263 -129.110708 42.133753 18.015313 -17.779823 -25.456893 52.322446 0.000000 0.000000 0.000000
63.304220 57.479755 358.471386 9.778555 -11.665856 -42.792934 0.028318 0.785830 44.047876 -0.715512 1.067339 0.431451 -41.820604 22.723236 22.799027 0.000000 0.000000 0.000000 -171.595163 17.043607 -161.665000 99.543450 -3.043038 173.485151 155.861348 37.924474 150.714155 -22.277759 7.666219 -87.381994 0.000000 0.000000 0.000000 0.000000 0.000000 0.000000 37.435044 -27.600482 25.855537 -168.413554 -26.127137 -146.130868 81.698916 52.964824 -112.062091 94.610736 -0.504867 -123.464867 0.000000 0.000000 0.000000 0.000000 0.000000 0.000000 -57.720017 -11.025056 27.737989 28.162860 -14.095958 12.068814 9.945698 -29.751952 -1.089821 0.000000 0.000000 0.000000 106.576809 41.635768 -12.505991 -133.403257 43.046071 18.677880 -18.841229 -28.197732 36.390930 0.000000 0.000000 0.000000
